<?xml version="1.0" encoding="utf-8"?>
<!-- Generator: Adobe Illustrator 16.0.0, SVG Export Plug-In . SVG Version: 6.00 Build 0)  -->
<!DOCTYPE svg PUBLIC "-//W3C//DTD SVG 1.1//EN" "http://www.w3.org/Graphics/SVG/1.1/DTD/svg11.dtd">
<svg version="1.1" xmlns="http://www.w3.org/2000/svg" xmlns:xlink="http://www.w3.org/1999/xlink" x="0px" y="0px" width="24px"
	 height="10px" viewBox="0 0 24 10" enable-background="new 0 0 24 10" xml:space="preserve">
<g id="_x34_">
	<g id="UNITED_KINGDOM_1_">
		<g>
			<g>
				<defs>
					<rect id="SVGID_451_" y="-0.039" width="17.211" height="10.039"/>
				</defs>
				<clipPath id="SVGID_2_">
					<use xlink:href="#SVGID_451_"  overflow="visible"/>
				</clipPath>
				<rect y="-0.039" clip-path="url(#SVGID_2_)" fill="#FFFFFF" width="17.211" height="10.039"/>
				<polygon clip-path="url(#SVGID_2_)" fill="#BD0034" points="11.524,3.591 17.211,0.407 17.211,-0.039 16.819,-0.039 
					10.335,3.591 				"/>
				<polygon clip-path="url(#SVGID_2_)" fill="#BD0034" points="11.256,6.572 17.211,9.904 17.211,9.238 12.445,6.572 				"/>
				<polygon clip-path="url(#SVGID_2_)" fill="#BD0034" points="0,0.725 5.095,3.591 6.285,3.591 0,0.059 				"/>
				<polygon clip-path="url(#SVGID_2_)" fill="#BD0034" points="6.015,6.572 0,9.941 0,10 1.087,10 7.206,6.572 				"/>
				<polygon clip-path="url(#SVGID_2_)" fill="#1A237B" points="16.033,-0.039 10.007,-0.039 10.007,3.336 				"/>
				<polygon clip-path="url(#SVGID_2_)" fill="#1A237B" points="7.347,-0.039 1.345,-0.039 7.347,3.336 				"/>
				<polygon clip-path="url(#SVGID_2_)" fill="#1A237B" points="17.211,3.591 17.211,1.287 13.123,3.591 				"/>
				<polygon clip-path="url(#SVGID_2_)" fill="#1A237B" points="17.211,8.851 17.211,6.572 13.123,6.572 				"/>
				<polygon clip-path="url(#SVGID_2_)" fill="#1A237B" points="1.686,10 7.347,10 7.347,6.828 				"/>
				<polygon clip-path="url(#SVGID_2_)" fill="#1A237B" points="10.007,10 15.687,10 10.007,6.828 				"/>
				<polygon clip-path="url(#SVGID_2_)" fill="#1A237B" points="0,6.572 0,8.953 4.23,6.572 				"/>
				<polygon clip-path="url(#SVGID_2_)" fill="#1A237B" points="0,3.591 4.23,3.591 0,1.206 				"/>
				<polygon clip-path="url(#SVGID_2_)" fill="#BD0034" points="7.879,-0.039 7.879,4.188 0,4.188 0,5.977 7.879,5.977 7.879,10 
					9.475,10 9.475,5.977 17.211,5.977 17.211,4.188 9.475,4.188 9.475,-0.039 				"/>
			</g>
		</g>
	</g>
</g>
<g id="Layer_1">
</g>
</svg>
