<?xml version="1.0" encoding="utf-8"?>
<!-- Generator: Adobe Illustrator 16.0.0, SVG Export Plug-In . SVG Version: 6.00 Build 0)  -->
<!DOCTYPE svg PUBLIC "-//W3C//DTD SVG 1.1//EN" "http://www.w3.org/Graphics/SVG/1.1/DTD/svg11.dtd">
<svg version="1.1" xmlns="http://www.w3.org/2000/svg" xmlns:xlink="http://www.w3.org/1999/xlink" x="0px" y="0px" width="24px"
	 height="10px" viewBox="0 0 24 10" enable-background="new 0 0 24 10" xml:space="preserve">
<g id="_x34_">
	<g id="ARGENTINA_3_">
		<g>
			<g>
				<defs>
					<rect id="SVGID_695_" width="17.211" height="10.039"/>
				</defs>
				<clipPath id="SVGID_2_">
					<use xlink:href="#SVGID_695_"  overflow="visible"/>
				</clipPath>
				<rect y="3.346" clip-path="url(#SVGID_2_)" fill="#FFFFFF" width="17.211" height="3.347"/>
				<rect clip-path="url(#SVGID_2_)" fill="#80A7D8" width="17.211" height="3.346"/>
				<rect y="6.693" clip-path="url(#SVGID_2_)" fill="#80A7D8" width="17.211" height="3.346"/>
				<g clip-path="url(#SVGID_2_)">
					<defs>
						<rect id="SVGID_697_" width="17.211" height="10.039"/>
					</defs>
					<clipPath id="SVGID_4_">
						<use xlink:href="#SVGID_697_"  overflow="visible"/>
					</clipPath>
					<path clip-path="url(#SVGID_4_)" fill="#F1BD51" d="M8.537,5.018l0.052,1.37c0,0,0,0.025,0.017,0.025s0.017-0.025,0.017-0.025
						l0.052-1.37H8.537z"/>
					<g clip-path="url(#SVGID_4_)">
						<path fill="#7A361D" d="M8.605,6.418c-0.017,0-0.021-0.021-0.021-0.03L8.532,5.02l0.01-0.001l0.05,1.37
							c0,0,0,0.021,0.014,0.021c0.013,0,0.013-0.021,0.013-0.021l0.052-1.37l-0.042,1.37C8.628,6.397,8.622,6.418,8.605,6.418
							L8.605,6.418z"/>
					</g>
					<polygon clip-path="url(#SVGID_4_)" fill="#7A361D" points="8.571,5.018 8.605,5.959 8.639,5.018 					"/>
					<path clip-path="url(#SVGID_4_)" fill="#F1BD51" d="M8.477,5.461C8.398,5.633,8.464,5.774,8.388,5.924
						c-0.08,0.15-0.031,0.274-0.035,0.344C8.347,6.337,8.291,6.356,8.305,6.373C8.319,6.388,8.379,6.357,8.4,6.265
						C8.424,6.173,8.369,6.12,8.462,5.936c0.095-0.185,0.021-0.268,0.116-0.433L8.477,5.461z"/>
					<g clip-path="url(#SVGID_4_)">
						<path fill="#7A361D" d="M8.319,6.38L8.301,6.375c-0.008-0.01,0-0.02,0.011-0.031c0.013-0.015,0.034-0.038,0.035-0.077
							c0.002-0.019,0-0.041-0.003-0.067c-0.009-0.07-0.02-0.166,0.04-0.277c0.038-0.075,0.04-0.146,0.043-0.222
							C8.429,5.625,8.433,5.547,8.474,5.46L8.48,5.463C8.441,5.548,8.438,5.626,8.436,5.702C8.433,5.777,8.429,5.851,8.392,5.926
							C8.333,6.035,8.346,6.131,8.353,6.2c0.002,0.026,0.004,0.048,0.004,0.068C8.353,6.31,8.331,6.333,8.317,6.35
							c-0.01,0.012-0.013,0.016-0.01,0.02c0.034-0.004,0.073-0.038,0.09-0.106c0.007-0.03,0.007-0.057,0.005-0.085
							C8.398,6.121,8.397,6.057,8.459,5.934c0.048-0.091,0.053-0.157,0.057-0.221c0.004-0.066,0.01-0.128,0.059-0.212
							C8.532,5.587,8.528,5.648,8.523,5.713C8.52,5.777,8.514,5.846,8.468,5.938c-0.062,0.121-0.06,0.185-0.059,0.24
							c0.002,0.03,0.002,0.057-0.005,0.089C8.388,6.333,8.351,6.373,8.322,6.38L8.319,6.38L8.319,6.38z"/>
					</g>
					<path clip-path="url(#SVGID_4_)" fill="#7A361D" d="M8.5,5.505C8.438,5.677,8.502,5.79,8.42,5.936
						C8.511,5.831,8.45,5.697,8.528,5.52L8.5,5.505z"/>
					<path clip-path="url(#SVGID_4_)" fill="#F1BD51" d="M8.674,5.018L8.622,3.65c0,0,0-0.025-0.017-0.025S8.589,3.65,8.589,3.65
						L8.537,5.018H8.674z"/>
					<g clip-path="url(#SVGID_4_)">
						<path fill="#7A361D" d="M8.67,5.02L8.618,3.651c0,0,0-0.022-0.013-0.022c-0.014,0-0.014,0.021-0.014,0.021L8.542,5.02
							L8.585,3.65c0-0.011,0.004-0.031,0.021-0.031s0.022,0.02,0.022,0.031L8.68,5.018L8.67,5.02L8.67,5.02z"/>
					</g>
					<polygon clip-path="url(#SVGID_4_)" fill="#7A361D" points="8.639,5.018 8.605,4.08 8.571,5.018 					"/>
					<path clip-path="url(#SVGID_4_)" fill="#F1BD51" d="M8.735,4.576c0.078-0.171,0.011-0.312,0.089-0.463
						c0.08-0.15,0.03-0.274,0.034-0.343c0.006-0.068,0.063-0.088,0.048-0.104C8.894,3.65,8.834,3.683,8.811,3.773
						c-0.023,0.092,0.032,0.145-0.063,0.33C8.654,4.286,8.73,4.37,8.635,4.535L8.735,4.576z"/>
					<g clip-path="url(#SVGID_4_)">
						<path fill="#7A361D" d="M8.739,4.578L8.732,4.575C8.77,4.49,8.771,4.413,8.776,4.337c0.002-0.077,0.006-0.15,0.045-0.226
							c0.055-0.108,0.046-0.202,0.037-0.272c0-0.027-0.004-0.05-0.002-0.068C8.858,3.728,8.88,3.705,8.894,3.688
							c0.011-0.012,0.013-0.017,0.011-0.02C8.871,3.671,8.832,3.705,8.815,3.774c-0.01,0.032-0.007,0.058-0.005,0.085
							c0.002,0.058,0.005,0.122-0.059,0.245C8.706,4.195,8.7,4.262,8.696,4.326c-0.005,0.066-0.01,0.127-0.058,0.21
							C8.678,4.45,8.683,4.389,8.687,4.324C8.691,4.26,8.696,4.194,8.744,4.1C8.806,3.98,8.804,3.916,8.8,3.859
							c0-0.027-0.002-0.055,0.006-0.086c0.019-0.074,0.06-0.109,0.083-0.114l0.003,0L8.91,3.664c0.009,0.009,0,0.019-0.01,0.03
							C8.889,3.709,8.865,3.732,8.864,3.771c-0.002,0.019,0,0.042,0.003,0.067c0.007,0.072,0.02,0.167-0.039,0.278
							C8.789,4.189,8.787,4.262,8.784,4.337C8.782,4.413,8.778,4.492,8.739,4.578L8.739,4.578z"/>
					</g>
					<path clip-path="url(#SVGID_4_)" fill="#7A361D" d="M8.713,4.533c0.063-0.171-0.004-0.285,0.08-0.43
						C8.702,4.207,8.76,4.341,8.682,4.518L8.713,4.533z"/>
					<path clip-path="url(#SVGID_4_)" fill="#F1BD51" d="M8.605,4.95L7.236,5.001c0,0-0.025,0-0.025,0.017
						c0,0.019,0.025,0.019,0.025,0.019l1.369,0.051V4.95z"/>
					<g clip-path="url(#SVGID_4_)">
						<path fill="#7A361D" d="M8.606,5.083L7.236,5.04c-0.009,0-0.029-0.004-0.029-0.022c0-0.016,0.021-0.02,0.029-0.02l1.369-0.052
							l0.001,0.009l-1.37,0.051c0,0-0.021,0-0.021,0.012c0,0.014,0.021,0.014,0.021,0.014L8.606,5.083L8.606,5.083z"/>
					</g>
					<polygon clip-path="url(#SVGID_4_)" fill="#7A361D" points="8.605,4.984 7.666,5.018 8.605,5.053 					"/>
					<path clip-path="url(#SVGID_4_)" fill="#F1BD51" d="M8.163,4.89C7.992,4.811,7.851,4.878,7.701,4.8
						C7.549,4.722,7.426,4.771,7.355,4.766C7.287,4.76,7.269,4.703,7.252,4.718C7.236,4.731,7.269,4.791,7.359,4.813
						c0.093,0.024,0.145-0.031,0.329,0.063c0.185,0.095,0.269,0.02,0.434,0.115L8.163,4.89z"/>
					<g clip-path="url(#SVGID_4_)">
						<path fill="#7A361D" d="M8.124,4.986C8.038,4.948,7.975,4.943,7.912,4.938C7.847,4.933,7.779,4.928,7.687,4.88
							c-0.12-0.062-0.184-0.06-0.239-0.057c-0.03,0.002-0.057,0.002-0.088-0.005C7.291,4.801,7.252,4.763,7.246,4.735L7.244,4.732
							L7.25,4.714c0.012-0.009,0.021,0,0.031,0.01c0.014,0.014,0.037,0.034,0.076,0.037C7.374,4.763,7.398,4.76,7.423,4.757
							c0.071-0.007,0.169-0.019,0.28,0.039C7.778,4.835,7.849,4.838,7.925,4.84s0.152,0.005,0.24,0.045L8.163,4.894
							C8.075,4.854,7.999,4.852,7.925,4.849c-0.078-0.003-0.15-0.004-0.227-0.045C7.59,4.747,7.494,4.758,7.425,4.766
							C7.398,4.769,7.376,4.771,7.355,4.769C7.314,4.766,7.291,4.745,7.275,4.73C7.265,4.722,7.26,4.718,7.256,4.722
							C7.26,4.755,7.291,4.792,7.361,4.81c0.029,0.007,0.056,0.007,0.086,0.006C7.503,4.813,7.568,4.81,7.69,4.873
							C7.781,4.92,7.849,4.924,7.912,4.929C7.977,4.935,8.04,4.939,8.124,4.986L8.124,4.986z"/>
					</g>
					<path clip-path="url(#SVGID_4_)" fill="#7A361D" d="M8.12,4.911c-0.171-0.06-0.284,0.004-0.432-0.078
						c0.104,0.092,0.24,0.031,0.417,0.111L8.12,4.911z"/>
					<path clip-path="url(#SVGID_4_)" fill="#F1BD51" d="M8.605,5.087l1.369-0.051c0,0,0.025,0,0.025-0.019
						c0-0.017-0.025-0.017-0.025-0.017L8.605,4.95V5.087z"/>
					<g clip-path="url(#SVGID_4_)">
						<path fill="#7A361D" d="M8.606,5.093L8.605,5.083l1.369-0.051c0,0,0.021,0,0.021-0.014c0-0.012-0.021-0.012-0.021-0.012
							L8.605,4.955l1.369,0.043c0.01,0,0.028,0.004,0.028,0.02c0,0.018-0.019,0.022-0.028,0.022L8.606,5.093L8.606,5.093z"/>
					</g>
					<polygon clip-path="url(#SVGID_4_)" fill="#7A361D" points="8.605,5.053 9.545,5.018 8.605,4.984 					"/>
					<path clip-path="url(#SVGID_4_)" fill="#F1BD51" d="M9.048,5.148c0.173,0.078,0.314,0.011,0.464,0.09s0.273,0.029,0.343,0.035
						C9.923,5.278,9.941,5.334,9.959,5.32c0.016-0.014-0.018-0.073-0.108-0.096C9.76,5.201,9.705,5.256,9.523,5.162
						c-0.186-0.095-0.27-0.019-0.433-0.114L9.048,5.148z"/>
					<g clip-path="url(#SVGID_4_)">
						<path fill="#7A361D" d="M9.953,5.327c-0.007,0-0.016-0.006-0.022-0.013C9.916,5.3,9.894,5.28,9.854,5.278
							c-0.019-0.002-0.041,0-0.067,0.004C9.716,5.29,9.62,5.299,9.51,5.242C9.434,5.203,9.364,5.2,9.287,5.197
							C9.211,5.195,9.133,5.192,9.045,5.152L9.05,5.144c0.085,0.039,0.161,0.042,0.237,0.045c0.077,0.003,0.148,0.006,0.227,0.045
							C9.622,5.292,9.717,5.28,9.785,5.273C9.813,5.271,9.836,5.268,9.854,5.27C9.896,5.272,9.92,5.293,9.936,5.307
							c0.014,0.011,0.018,0.012,0.02,0.01C9.953,5.284,9.92,5.246,9.851,5.229C9.819,5.221,9.794,5.222,9.766,5.223
							C9.707,5.227,9.645,5.229,9.521,5.166C9.429,5.119,9.364,5.114,9.301,5.109C9.234,5.104,9.173,5.1,9.089,5.051
							c0.085,0.041,0.146,0.044,0.212,0.05c0.063,0.005,0.13,0.011,0.225,0.058c0.119,0.062,0.182,0.059,0.24,0.056
							C9.794,5.213,9.82,5.212,9.853,5.22C9.925,5.238,9.96,5.28,9.966,5.303v0.003L9.96,5.323C9.959,5.327,9.957,5.327,9.953,5.327
							L9.953,5.327z"/>
					</g>
					<path clip-path="url(#SVGID_4_)" fill="#7A361D" d="M9.091,5.126c0.172,0.063,0.286-0.002,0.433,0.079
						c-0.104-0.09-0.239-0.03-0.417-0.11L9.091,5.126z"/>
					<path clip-path="url(#SVGID_4_)" fill="#F1BD51" d="M8.557,4.97L7.625,5.975c0,0-0.017,0.018-0.005,0.03
						c0.011,0.011,0.029-0.007,0.029-0.007l1.005-0.932L8.557,4.97z"/>
					<g clip-path="url(#SVGID_4_)">
						<path fill="#7A361D" d="M7.629,6.014C7.605,5.997,7.616,5.979,7.622,5.972l0.932-1.004l0.007,0.006L7.629,5.978
							c-0.002,0-0.015,0.016-0.007,0.024c0.009,0.011,0.026-0.006,0.026-0.006l1.004-0.931L7.653,6.002
							C7.653,6.002,7.643,6.014,7.629,6.014L7.629,6.014z"/>
					</g>
					<polygon clip-path="url(#SVGID_4_)" fill="#7A361D" points="8.581,4.995 7.941,5.683 8.631,5.043 					"/>
					<path clip-path="url(#SVGID_4_)" fill="#F1BD51" d="M8.201,5.24c-0.179,0.066-0.23,0.214-0.39,0.264
						C7.648,5.556,7.596,5.677,7.544,5.723C7.492,5.768,7.438,5.741,7.436,5.763c0,0.021,0.063,0.04,0.146-0.009
						C7.66,5.707,7.658,5.629,7.855,5.566c0.199-0.063,0.203-0.175,0.388-0.224L8.201,5.24z"/>
					<g clip-path="url(#SVGID_4_)">
						<path fill="#7A361D" d="M7.482,5.789c-0.017,0-0.03-0.003-0.039-0.008L7.432,5.763c0-0.014,0.014-0.015,0.028-0.015
							C7.48,5.746,7.51,5.744,7.54,5.719C7.555,5.708,7.568,5.69,7.582,5.67C7.627,5.614,7.688,5.538,7.81,5.5
							c0.08-0.025,0.133-0.073,0.188-0.125C8.053,5.323,8.111,5.27,8.2,5.237l0.003,0.008c-0.087,0.032-0.145,0.085-0.2,0.136
							C7.946,5.434,7.895,5.483,7.812,5.508C7.694,5.545,7.632,5.621,7.59,5.675c-0.017,0.021-0.029,0.038-0.044,0.05
							C7.514,5.753,7.482,5.755,7.46,5.757c-0.013,0-0.021,0-0.021,0.006c0.028,0.021,0.078,0.023,0.138-0.012
							c0.028-0.017,0.045-0.036,0.065-0.057c0.037-0.042,0.082-0.09,0.213-0.132c0.098-0.032,0.147-0.075,0.195-0.116
							c0.05-0.043,0.098-0.084,0.192-0.109C8.153,5.371,8.107,5.41,8.057,5.453C8.009,5.495,7.959,5.538,7.857,5.57
							C7.729,5.612,7.687,5.659,7.648,5.7C7.629,5.721,7.61,5.741,7.582,5.758C7.544,5.781,7.51,5.789,7.482,5.789L7.482,5.789z"/>
					</g>
					<path clip-path="url(#SVGID_4_)" fill="#7A361D" d="M8.186,5.287c-0.165,0.078-0.2,0.203-0.359,0.249
						c0.138-0.01,0.189-0.147,0.372-0.216L8.186,5.287z"/>
					<path clip-path="url(#SVGID_4_)" fill="#F1BD51" d="M8.654,5.067l0.931-1.003c0,0,0.019-0.019,0.007-0.031
						c-0.013-0.012-0.03,0.006-0.03,0.006L8.557,4.97L8.654,5.067z"/>
					<g clip-path="url(#SVGID_4_)">
						<path fill="#7A361D" d="M8.657,5.07L8.652,5.066l0.931-1.005c0,0,0.014-0.016,0.005-0.025
							C9.579,4.028,9.564,4.042,9.564,4.042L8.559,4.974L9.56,4.035C9.564,4.029,9.583,4.019,9.595,4.03
							c0.011,0.013,0,0.029-0.007,0.036L8.657,5.07L8.657,5.07z"/>
					</g>
					<polygon clip-path="url(#SVGID_4_)" fill="#7A361D" points="8.631,5.043 9.271,4.355 8.581,4.995 					"/>
					<path clip-path="url(#SVGID_4_)" fill="#F1BD51" d="M9.011,4.798c0.176-0.066,0.228-0.213,0.391-0.264
						c0.161-0.05,0.215-0.173,0.267-0.218c0.053-0.044,0.106-0.018,0.106-0.04c0.002-0.021-0.061-0.041-0.144,0.008
						c-0.082,0.049-0.08,0.125-0.275,0.188C9.157,4.536,9.151,4.648,8.97,4.697L9.011,4.798z"/>
					<g clip-path="url(#SVGID_4_)">
						<path fill="#7A361D" d="M9.011,4.802L9.009,4.794c0.088-0.032,0.143-0.086,0.199-0.137C9.263,4.605,9.316,4.555,9.401,4.53
							C9.517,4.494,9.577,4.419,9.62,4.363c0.018-0.021,0.031-0.039,0.046-0.051c0.03-0.027,0.063-0.029,0.085-0.03
							c0.015-0.001,0.02-0.002,0.02-0.006C9.744,4.254,9.694,4.251,9.634,4.287C9.607,4.303,9.588,4.323,9.57,4.343
							c-0.039,0.042-0.084,0.09-0.215,0.134C9.258,4.508,9.208,4.55,9.158,4.592C9.108,4.635,9.063,4.676,8.97,4.701
							c0.089-0.032,0.136-0.073,0.184-0.116C9.201,4.543,9.254,4.5,9.355,4.469c0.128-0.043,0.17-0.09,0.207-0.13
							C9.583,4.317,9.602,4.297,9.629,4.28c0.061-0.036,0.113-0.036,0.139-0.022l0.012,0.019C9.777,4.288,9.766,4.289,9.751,4.291
							c-0.02,0-0.051,0.002-0.078,0.027c-0.016,0.013-0.028,0.029-0.046,0.05C9.583,4.425,9.521,4.501,9.403,4.537
							c-0.082,0.025-0.135,0.075-0.19,0.126S9.1,4.769,9.011,4.802L9.011,4.802z"/>
					</g>
					<path clip-path="url(#SVGID_4_)" fill="#7A361D" d="M9.025,4.751c0.165-0.078,0.2-0.204,0.36-0.248
						C9.249,4.512,9.194,4.649,9.015,4.718L9.025,4.751z"/>
					<path clip-path="url(#SVGID_4_)" fill="#F1BD51" d="M8.654,4.97L7.649,4.039c0,0-0.019-0.018-0.029-0.006
						C7.608,4.045,7.625,4.064,7.625,4.064l0.932,1.003L8.654,4.97z"/>
					<g clip-path="url(#SVGID_4_)">
						<path fill="#7A361D" d="M8.561,5.066l-0.938-1C7.616,4.059,7.605,4.042,7.618,4.03c0.011-0.012,0.028-0.001,0.035,0.005
							l1.004,0.932L8.652,4.974L7.648,4.042c0,0-0.018-0.014-0.026-0.006C7.614,4.045,7.627,4.061,7.629,4.061L8.561,5.066
							L8.561,5.066z"/>
					</g>
					<polygon clip-path="url(#SVGID_4_)" fill="#7A361D" points="8.631,4.995 7.941,4.355 8.581,5.043 					"/>
					<path clip-path="url(#SVGID_4_)" fill="#F1BD51" d="M8.384,4.615C8.319,4.438,8.172,4.386,8.12,4.224
						C8.07,4.061,7.949,4.009,7.902,3.956C7.857,3.904,7.884,3.851,7.861,3.849C7.841,3.848,7.822,3.913,7.868,3.993
						c0.051,0.081,0.127,0.079,0.19,0.276s0.175,0.204,0.225,0.387L8.384,4.615z"/>
					<g clip-path="url(#SVGID_4_)">
						<path fill="#7A361D" d="M8.287,4.655C8.253,4.566,8.215,4.52,8.172,4.47c-0.043-0.049-0.085-0.1-0.117-0.198
							c-0.043-0.13-0.089-0.172-0.13-0.21c-0.022-0.019-0.043-0.038-0.06-0.066C7.828,3.931,7.832,3.877,7.845,3.857l0.019-0.013
							c0.012,0.001,0.014,0.014,0.014,0.029c0.002,0.02,0.004,0.05,0.027,0.08c0.013,0.014,0.031,0.029,0.053,0.045
							c0.055,0.044,0.13,0.104,0.167,0.224C8.15,4.303,8.198,4.355,8.25,4.411c0.051,0.055,0.104,0.113,0.14,0.202L8.381,4.616
							c-0.032-0.087-0.086-0.145-0.138-0.2C8.191,4.36,8.142,4.307,8.116,4.224C8.079,4.108,8.005,4.049,7.951,4.005
							C7.931,3.988,7.912,3.973,7.898,3.959c-0.025-0.032-0.027-0.064-0.03-0.085C7.866,3.859,7.866,3.854,7.861,3.853
							C7.841,3.879,7.838,3.929,7.873,3.991C7.89,4.019,7.91,4.035,7.931,4.055c0.04,0.039,0.089,0.083,0.132,0.214
							c0.029,0.097,0.074,0.147,0.114,0.196C8.22,4.514,8.262,4.562,8.287,4.655L8.287,4.655z"/>
					</g>
					<path clip-path="url(#SVGID_4_)" fill="#7A361D" d="M8.34,4.599C8.259,4.435,8.133,4.4,8.088,4.239
						c0.01,0.137,0.149,0.191,0.217,0.372L8.34,4.599z"/>
					<path clip-path="url(#SVGID_4_)" fill="#F1BD51" d="M8.557,5.067l1.005,0.932c0,0,0.018,0.018,0.03,0.007
						c0.012-0.012-0.007-0.03-0.007-0.03L8.654,4.97L8.557,5.067z"/>
					<g clip-path="url(#SVGID_4_)">
						<path fill="#7A361D" d="M9.581,6.009c-0.015,0-0.021-0.007-0.021-0.007l-1.006-0.93l0.005-0.006l1.006,0.931
							c0,0,0.015,0.017,0.023,0.006c0.009-0.008-0.005-0.024-0.005-0.024L8.652,4.974l0.936,0.998
							C9.597,5.98,9.605,5.997,9.595,6.008C9.59,6.009,9.587,6.009,9.581,6.009L9.581,6.009z"/>
					</g>
					<polygon clip-path="url(#SVGID_4_)" fill="#7A361D" points="8.581,5.043 9.271,5.683 8.631,4.995 					"/>
					<path clip-path="url(#SVGID_4_)" fill="#F1BD51" d="M8.826,5.424C8.894,5.601,9.04,5.652,9.091,5.815
						c0.05,0.162,0.172,0.215,0.217,0.266c0.048,0.053,0.02,0.107,0.041,0.108c0.021,0,0.041-0.063-0.008-0.145
						c-0.048-0.081-0.124-0.08-0.188-0.276C9.089,5.571,8.977,5.565,8.928,5.382L8.826,5.424z"/>
					<g clip-path="url(#SVGID_4_)">
						<path fill="#7A361D" d="M9.349,6.193c-0.013,0-0.013-0.014-0.015-0.029c-0.002-0.02-0.004-0.05-0.028-0.08
							c-0.013-0.013-0.028-0.028-0.05-0.043C9.199,5.997,9.123,5.936,9.087,5.815C9.063,5.735,9.013,5.683,8.96,5.626
							C8.91,5.571,8.856,5.514,8.822,5.425L8.83,5.422c0.034,0.087,0.085,0.144,0.137,0.199C9.02,5.678,9.07,5.73,9.095,5.813
							C9.132,5.931,9.208,5.99,9.261,6.035c0.021,0.016,0.04,0.029,0.051,0.045c0.027,0.031,0.029,0.063,0.029,0.083
							C9.343,6.18,9.345,6.185,9.349,6.185c0.022-0.027,0.026-0.076-0.011-0.137C9.321,6.021,9.303,6.002,9.282,5.982
							C9.238,5.944,9.192,5.9,9.149,5.77C9.118,5.672,9.075,5.623,9.032,5.573C8.99,5.523,8.949,5.476,8.926,5.383
							c0.03,0.089,0.069,0.136,0.114,0.186c0.04,0.049,0.086,0.099,0.117,0.199c0.042,0.128,0.09,0.171,0.13,0.209
							c0.021,0.02,0.042,0.038,0.058,0.066c0.036,0.061,0.037,0.114,0.022,0.139L9.349,6.193L9.349,6.193z"/>
					</g>
					<path clip-path="url(#SVGID_4_)" fill="#7A361D" d="M8.873,5.438c0.077,0.165,0.204,0.199,0.25,0.36
						C9.112,5.661,8.976,5.608,8.906,5.428L8.873,5.438z"/>
					<path clip-path="url(#SVGID_4_)" fill="#F1BD51" d="M8.542,4.992L8.066,6.277c0,0-0.01,0.023,0.006,0.03
						c0.016,0.007,0.025-0.017,0.025-0.017l0.57-1.245L8.542,4.992z"/>
					<g clip-path="url(#SVGID_4_)">
						<path fill="#7A361D" d="M8.083,6.312C8.055,6.305,8.059,6.286,8.063,6.275l0.475-1.284l0.009,0.003L8.07,6.278
							c0,0-0.008,0.021,0.003,0.025l0.021-0.016l0.571-1.245L8.101,6.292C8.101,6.292,8.096,6.307,8.083,6.312L8.083,6.312z"/>
					</g>
					<polygon clip-path="url(#SVGID_4_)" fill="#7A361D" points="8.576,5.006 8.246,5.887 8.637,5.032 					"/>
					<path clip-path="url(#SVGID_4_)" fill="#F1BD51" d="M8.317,5.378c-0.139,0.129-0.13,0.284-0.261,0.393
						c-0.13,0.109-0.132,0.243-0.164,0.304C7.861,6.137,7.803,6.134,7.81,6.154s0.074,0.013,0.13-0.063s0.026-0.146,0.185-0.281
						c0.157-0.133,0.119-0.239,0.27-0.355L8.317,5.378z"/>
					<g clip-path="url(#SVGID_4_)">
						<path fill="#7A361D" d="M7.832,6.167c-0.004,0-0.006,0-0.008,0L7.806,6.155C7.801,6.144,7.813,6.137,7.826,6.131
							C7.845,6.121,7.873,6.108,7.89,6.074c0.009-0.018,0.015-0.04,0.022-0.064c0.019-0.068,0.047-0.161,0.143-0.241
							c0.063-0.054,0.094-0.12,0.126-0.188c0.03-0.069,0.063-0.14,0.133-0.206l0.006,0.007C8.252,5.445,8.218,5.516,8.188,5.583
							C8.155,5.654,8.125,5.72,8.059,5.774c-0.093,0.079-0.119,0.17-0.14,0.238C7.912,6.039,7.904,6.061,7.896,6.078
							c-0.018,0.037-0.048,0.052-0.067,0.06c-0.013,0.007-0.018,0.01-0.016,0.015c0.033,0.01,0.079-0.006,0.122-0.063
							c0.02-0.026,0.028-0.05,0.037-0.077C7.994,5.958,8.016,5.898,8.12,5.808c0.078-0.066,0.107-0.125,0.137-0.183
							c0.03-0.059,0.059-0.114,0.135-0.173c-0.07,0.063-0.097,0.119-0.126,0.176c-0.03,0.059-0.061,0.118-0.141,0.187
							c-0.103,0.087-0.124,0.147-0.145,0.2c-0.01,0.027-0.019,0.053-0.038,0.079C7.904,6.146,7.857,6.167,7.832,6.167L7.832,6.167z"
							/>
					</g>
					<path clip-path="url(#SVGID_4_)" fill="#7A361D" d="M8.321,5.428C8.198,5.562,8.215,5.691,8.083,5.795
						c0.124-0.062,0.12-0.209,0.261-0.341L8.321,5.428z"/>
					<path clip-path="url(#SVGID_4_)" fill="#F1BD51" d="M8.668,5.045l0.479-1.285c0,0,0.009-0.023-0.008-0.029
						C9.123,3.725,9.114,3.748,9.114,3.748L8.542,4.992L8.668,5.045z"/>
					<g clip-path="url(#SVGID_4_)">
						<path fill="#7A361D" d="M8.674,5.046L8.665,5.043l0.476-1.285c0,0,0.009-0.019-0.002-0.024L9.118,3.75L8.546,4.995
							l0.563-1.248c0,0,0.008-0.015,0.02-0.019l0.023,0.009c0.004,0.011-0.002,0.025-0.002,0.026L8.674,5.046L8.674,5.046z"/>
					</g>
					<polygon clip-path="url(#SVGID_4_)" fill="#7A361D" points="8.637,5.032 8.967,4.151 8.576,5.006 					"/>
					<path clip-path="url(#SVGID_4_)" fill="#F1BD51" d="M8.896,4.66c0.137-0.129,0.13-0.285,0.26-0.394
						c0.131-0.108,0.132-0.242,0.161-0.304C9.351,3.901,9.41,3.905,9.403,3.885C9.393,3.864,9.329,3.871,9.272,3.946
						c-0.058,0.076-0.025,0.146-0.184,0.28c-0.158,0.134-0.122,0.24-0.271,0.355L8.896,4.66z"/>
					<g clip-path="url(#SVGID_4_)">
						<path fill="#7A361D" d="M8.897,4.664L8.892,4.657C8.96,4.593,8.992,4.523,9.023,4.454c0.031-0.07,0.061-0.136,0.128-0.191
							c0.096-0.078,0.121-0.17,0.142-0.237C9.301,4,9.306,3.978,9.314,3.961c0.02-0.038,0.05-0.052,0.066-0.061
							c0.012-0.007,0.021-0.01,0.019-0.015c-0.035-0.01-0.083,0.007-0.122,0.063C9.256,3.974,9.249,4,9.236,4.026
							C9.219,4.081,9.194,4.142,9.091,4.23C9.015,4.296,8.982,4.355,8.954,4.413C8.926,4.471,8.897,4.527,8.821,4.585
							c0.067-0.064,0.096-0.119,0.126-0.177c0.028-0.058,0.059-0.118,0.137-0.185c0.104-0.087,0.125-0.147,0.146-0.2
							C9.24,3.996,9.251,3.97,9.269,3.944C9.31,3.889,9.357,3.866,9.388,3.871l0.019,0.013C9.41,3.895,9.399,3.901,9.386,3.908
							C9.367,3.916,9.339,3.929,9.323,3.964C9.313,3.981,9.308,4.002,9.301,4.028C9.282,4.097,9.254,4.189,9.157,4.27
							C9.093,4.323,9.064,4.389,9.03,4.458C8.999,4.527,8.967,4.598,8.897,4.664L8.897,4.664z"/>
					</g>
					<path clip-path="url(#SVGID_4_)" fill="#7A361D" d="M8.892,4.611C9.015,4.477,8.997,4.347,9.13,4.244
						C9.004,4.305,9.009,4.452,8.867,4.585L8.892,4.611z"/>
					<path clip-path="url(#SVGID_4_)" fill="#F1BD51" d="M8.631,4.956L7.347,4.479c0,0-0.022-0.01-0.03,0.006
						c-0.005,0.016,0.02,0.026,0.02,0.026L8.58,5.082L8.631,4.956z"/>
					<g clip-path="url(#SVGID_4_)">
						<path fill="#7A361D" d="M8.581,5.079L7.334,4.515C7.324,4.51,7.308,4.499,7.313,4.483C7.32,4.469,7.341,4.471,7.349,4.476
							l1.284,0.476L8.631,4.959L7.347,4.483c-0.002,0-0.021-0.008-0.026,0.003C7.316,4.499,7.336,4.508,7.336,4.508L8.581,5.079
							L8.581,5.079z"/>
					</g>
					<polygon clip-path="url(#SVGID_4_)" fill="#7A361D" points="8.618,4.988 7.736,4.658 8.592,5.051 					"/>
					<path clip-path="url(#SVGID_4_)" fill="#F1BD51" d="M8.246,4.73C8.118,4.591,7.962,4.601,7.853,4.47
						c-0.108-0.13-0.24-0.132-0.304-0.163c-0.061-0.031-0.057-0.09-0.078-0.084c-0.02,0.007-0.015,0.074,0.063,0.13
						C7.608,4.41,7.68,4.379,7.813,4.536C7.949,4.695,8.053,4.657,8.17,4.807L8.246,4.73z"/>
					<g clip-path="url(#SVGID_4_)">
						<path fill="#7A361D" d="M8.172,4.805C8.107,4.734,8.053,4.707,7.995,4.679c-0.06-0.03-0.118-0.061-0.186-0.14
							C7.723,4.437,7.662,4.415,7.61,4.395c-0.028-0.009-0.052-0.02-0.08-0.039c-0.056-0.042-0.078-0.092-0.074-0.12L7.469,4.22
							c0.012-0.005,0.02,0.006,0.025,0.02c0.009,0.018,0.021,0.045,0.057,0.063c0.016,0.008,0.037,0.014,0.062,0.021
							c0.069,0.02,0.164,0.047,0.243,0.145C7.91,4.532,7.975,4.562,8.044,4.593c0.07,0.031,0.142,0.064,0.206,0.134L8.243,4.733
							C8.179,4.665,8.109,4.632,8.042,4.601C7.969,4.568,7.904,4.538,7.849,4.473C7.771,4.378,7.678,4.352,7.61,4.333
							C7.584,4.325,7.564,4.318,7.547,4.311C7.51,4.292,7.495,4.263,7.486,4.244C7.48,4.23,7.477,4.224,7.471,4.227
							C7.462,4.259,7.478,4.307,7.536,4.35c0.026,0.019,0.05,0.027,0.076,0.037c0.054,0.02,0.115,0.042,0.204,0.147
							C7.882,4.612,7.941,4.642,7.999,4.67C8.059,4.701,8.114,4.729,8.172,4.805L8.172,4.805z"/>
					</g>
					<path clip-path="url(#SVGID_4_)" fill="#7A361D" d="M8.198,4.733C8.063,4.612,7.933,4.627,7.829,4.497
						C7.891,4.62,8.038,4.616,8.172,4.758L8.198,4.733z"/>
					<path clip-path="url(#SVGID_4_)" fill="#F1BD51" d="M8.58,5.082l1.283,0.477c0,0,0.022,0.01,0.03-0.006
						C9.9,5.536,9.877,5.527,9.877,5.527L8.631,4.956L8.58,5.082z"/>
					<g clip-path="url(#SVGID_4_)">
						<path fill="#7A361D" d="M9.879,5.566c-0.007,0-0.011-0.002-0.018-0.003L8.578,5.086l0.003-0.007l1.284,0.476
							c0,0,0.019,0.008,0.024-0.004c0.006-0.011-0.015-0.02-0.015-0.02L8.63,4.959l1.249,0.564c0.009,0.004,0.025,0.016,0.019,0.03
							C9.894,5.563,9.886,5.566,9.879,5.566L9.879,5.566z"/>
					</g>
					<polygon clip-path="url(#SVGID_4_)" fill="#7A361D" points="8.592,5.051 9.473,5.378 8.618,4.988 					"/>
					<path clip-path="url(#SVGID_4_)" fill="#F1BD51" d="M8.965,5.308c0.13,0.139,0.286,0.13,0.393,0.26
						C9.467,5.699,9.6,5.701,9.661,5.731c0.063,0.032,0.058,0.091,0.08,0.084C9.76,5.808,9.754,5.741,9.678,5.685
						C9.602,5.628,9.533,5.66,9.399,5.502C9.263,5.344,9.157,5.382,9.043,5.231L8.965,5.308z"/>
					<g clip-path="url(#SVGID_4_)">
						<path fill="#7A361D" d="M9.737,5.82c-0.01,0-0.015-0.011-0.021-0.022C9.707,5.78,9.694,5.753,9.661,5.735
							C9.645,5.727,9.622,5.721,9.597,5.713C9.529,5.694,9.434,5.667,9.355,5.571C9.303,5.507,9.234,5.476,9.167,5.445
							C9.098,5.413,9.025,5.38,8.962,5.312l0.005-0.006c0.063,0.068,0.135,0.1,0.204,0.132s0.135,0.062,0.191,0.127
							C9.44,5.66,9.533,5.686,9.6,5.706c0.025,0.007,0.047,0.014,0.063,0.022C9.7,5.746,9.716,5.775,9.725,5.794
							c0.007,0.015,0.009,0.019,0.015,0.017c0.009-0.031-0.006-0.08-0.063-0.123C9.649,5.67,9.625,5.661,9.598,5.651
							c-0.054-0.02-0.113-0.042-0.205-0.146C9.329,5.427,9.269,5.396,9.211,5.368C9.153,5.338,9.098,5.31,9.04,5.233
							c0.063,0.07,0.117,0.097,0.177,0.127c0.058,0.029,0.117,0.059,0.185,0.139c0.087,0.103,0.146,0.125,0.2,0.145
							C9.629,5.653,9.653,5.662,9.68,5.682c0.062,0.044,0.078,0.097,0.074,0.12L9.742,5.819C9.741,5.82,9.739,5.82,9.737,5.82
							L9.737,5.82z"/>
					</g>
					<path clip-path="url(#SVGID_4_)" fill="#7A361D" d="M9.015,5.305C9.147,5.427,9.277,5.41,9.381,5.543
						C9.318,5.418,9.173,5.422,9.04,5.281L9.015,5.305z"/>
					<path clip-path="url(#SVGID_4_)" fill="#F1BD51" d="M8.58,4.956L7.336,5.527c0,0-0.024,0.009-0.02,0.025
						c0.008,0.017,0.03,0.006,0.03,0.006l1.284-0.477L8.58,4.956z"/>
					<g clip-path="url(#SVGID_4_)">
						<path fill="#7A361D" d="M7.334,5.566c-0.008,0-0.018-0.003-0.021-0.012c-0.005-0.015,0.012-0.026,0.021-0.03l1.244-0.571
							l0.003,0.007L7.336,5.531c0,0-0.02,0.009-0.016,0.02c0.006,0.012,0.024,0.004,0.026,0.004l1.284-0.476L7.349,5.563
							C7.345,5.564,7.339,5.566,7.334,5.566L7.334,5.566z"/>
					</g>
					<polygon clip-path="url(#SVGID_4_)" fill="#7A361D" points="8.592,4.988 7.736,5.378 8.618,5.051 					"/>
					<path clip-path="url(#SVGID_4_)" fill="#F1BD51" d="M8.148,5.069C7.959,5.062,7.854,5.178,7.685,5.163
						C7.516,5.148,7.421,5.24,7.355,5.262C7.289,5.284,7.25,5.238,7.24,5.259C7.229,5.277,7.283,5.32,7.376,5.306
						s0.123-0.085,0.327-0.069C7.91,5.254,7.959,5.153,8.148,5.178V5.069z"/>
					<g clip-path="url(#SVGID_4_)">
						<path fill="#7A361D" d="M7.341,5.313c-0.056,0-0.089-0.02-0.101-0.036L7.235,5.256C7.242,5.245,7.254,5.25,7.269,5.254
							c0.019,0.006,0.048,0.016,0.083,0.004c0.02-0.005,0.039-0.017,0.063-0.029c0.063-0.034,0.146-0.081,0.271-0.071
							c0.084,0.008,0.153-0.018,0.223-0.044c0.071-0.026,0.144-0.054,0.241-0.05v0.009C8.057,5.069,7.98,5.097,7.91,5.122
							c-0.07,0.027-0.14,0.052-0.226,0.045c-0.12-0.011-0.207,0.035-0.268,0.07C7.395,5.25,7.374,5.259,7.355,5.267
							C7.316,5.278,7.285,5.27,7.267,5.262C7.25,5.256,7.246,5.256,7.244,5.259c0.018,0.031,0.06,0.053,0.132,0.042
							c0.03-0.004,0.056-0.015,0.08-0.027c0.052-0.024,0.11-0.052,0.247-0.041c0.103,0.009,0.165-0.012,0.228-0.032
							c0.063-0.021,0.122-0.04,0.218-0.027c-0.1-0.005-0.153,0.016-0.216,0.036C7.871,5.23,7.808,5.25,7.703,5.242
							C7.568,5.231,7.51,5.259,7.46,5.282C7.434,5.294,7.41,5.306,7.378,5.311C7.365,5.312,7.352,5.313,7.341,5.313L7.341,5.313z"/>
					</g>
					<path clip-path="url(#SVGID_4_)" fill="#7A361D" d="M8.116,5.105c-0.183,0.01-0.262,0.113-0.43,0.092
						c0.132,0.044,0.232-0.062,0.428-0.056L8.116,5.105z"/>
					<path clip-path="url(#SVGID_4_)" fill="#F1BD51" d="M8.631,5.082l1.246-0.571c0,0,0.023-0.01,0.017-0.026
						c-0.008-0.016-0.03-0.006-0.03-0.006L8.58,4.956L8.631,5.082z"/>
					<g clip-path="url(#SVGID_4_)">
						<path fill="#7A361D" d="M8.633,5.086L8.63,5.079l1.245-0.571c0,0,0.021-0.009,0.015-0.021
							C9.884,4.475,9.865,4.483,9.865,4.483L8.581,4.959l1.28-0.484c0.011-0.004,0.03-0.007,0.036,0.008
							c0.007,0.016-0.01,0.027-0.019,0.032L8.633,5.086L8.633,5.086z"/>
					</g>
					<polygon clip-path="url(#SVGID_4_)" fill="#7A361D" points="8.618,5.051 9.473,4.658 8.592,4.988 					"/>
					<path clip-path="url(#SVGID_4_)" fill="#F1BD51" d="M9.064,4.969c0.188,0.008,0.293-0.109,0.463-0.094
						c0.169,0.015,0.265-0.078,0.328-0.1C9.923,4.755,9.962,4.799,9.972,4.78C9.98,4.761,9.929,4.718,9.834,4.731
						C9.741,4.747,9.714,4.816,9.507,4.8C9.301,4.784,9.252,4.884,9.064,4.859V4.969z"/>
					<g clip-path="url(#SVGID_4_)">
						<path fill="#7A361D" d="M9.08,4.974c-0.005,0-0.01,0-0.016,0V4.965c0.093,0.003,0.165-0.023,0.236-0.049
							c0.072-0.027,0.142-0.052,0.227-0.044c0.121,0.011,0.206-0.035,0.268-0.07c0.022-0.013,0.043-0.024,0.061-0.03
							c0.04-0.013,0.069-0.002,0.091,0.005c0.014,0.005,0.02,0.006,0.02,0.002c-0.015-0.03-0.059-0.052-0.13-0.043
							c-0.032,0.005-0.057,0.016-0.08,0.028C9.701,4.788,9.645,4.815,9.507,4.804C9.406,4.796,9.341,4.816,9.282,4.837
							c-0.063,0.02-0.124,0.039-0.218,0.027c0.094,0.004,0.152-0.016,0.213-0.036c0.062-0.02,0.126-0.04,0.229-0.032
							C9.643,4.807,9.7,4.78,9.751,4.757c0.025-0.013,0.052-0.025,0.083-0.029c0.07-0.011,0.121,0.01,0.138,0.034l0.003,0.021
							C9.97,4.793,9.957,4.789,9.941,4.784C9.923,4.777,9.896,4.768,9.857,4.78C9.842,4.786,9.82,4.796,9.799,4.809
							C9.735,4.844,9.651,4.89,9.525,4.879c-0.083-0.008-0.15,0.018-0.222,0.044C9.236,4.948,9.169,4.974,9.08,4.974L9.08,4.974z"/>
					</g>
					<path clip-path="url(#SVGID_4_)" fill="#7A361D" d="M9.097,4.932C9.277,4.924,9.357,4.821,9.523,4.84
						C9.393,4.796,9.291,4.904,9.098,4.898L9.097,4.932z"/>
					<path clip-path="url(#SVGID_4_)" fill="#F1BD51" d="M8.668,4.992l-0.57-1.244c0,0-0.01-0.023-0.025-0.017
						C8.057,3.738,8.066,3.761,8.066,3.761l0.476,1.285L8.668,4.992z"/>
					<g clip-path="url(#SVGID_4_)">
						<path fill="#7A361D" d="M8.546,5.043L8.063,3.763c0-0.001-0.006-0.015-0.002-0.025l0.022-0.01
							c0.013,0.004,0.018,0.019,0.018,0.019l0.571,1.245L8.665,4.995L8.083,3.731l-0.01,0.003L8.07,3.759L8.546,5.043L8.546,5.043z"
							/>
					</g>
					<polygon clip-path="url(#SVGID_4_)" fill="#7A361D" points="8.637,5.006 8.246,4.151 8.576,5.032 					"/>
					<path clip-path="url(#SVGID_4_)" fill="#F1BD51" d="M8.557,4.562c0.007-0.19-0.109-0.294-0.095-0.463
						c0.015-0.169-0.078-0.265-0.101-0.331c-0.02-0.066,0.024-0.104,0.006-0.114C8.347,3.645,8.305,3.696,8.319,3.79
						c0.014,0.094,0.085,0.121,0.068,0.328c-0.017,0.207,0.084,0.254,0.06,0.443L8.557,4.562z"/>
					<g clip-path="url(#SVGID_4_)">
						<path fill="#7A361D" d="M8.561,4.562H8.552c0.003-0.094-0.024-0.167-0.049-0.237c-0.027-0.072-0.054-0.14-0.046-0.226
							c0.011-0.123-0.035-0.206-0.069-0.267c-0.014-0.024-0.024-0.044-0.03-0.061C8.347,3.73,8.356,3.7,8.363,3.68
							c0.004-0.014,0.006-0.02,0.002-0.022C8.333,3.674,8.313,3.718,8.322,3.789C8.328,3.82,8.34,3.844,8.351,3.87
							c0.023,0.052,0.052,0.11,0.041,0.248C8.384,4.22,8.404,4.283,8.424,4.343c0.02,0.063,0.04,0.122,0.026,0.217
							c0.004-0.094-0.015-0.152-0.035-0.215c-0.02-0.062-0.041-0.125-0.032-0.229c0.011-0.135-0.016-0.193-0.039-0.244
							c-0.013-0.026-0.024-0.05-0.028-0.083c-0.011-0.07,0.009-0.12,0.031-0.137L8.369,3.65c0.012,0.005,0.007,0.018,0.002,0.033
							C8.363,3.702,8.354,3.73,8.365,3.767c0.006,0.018,0.019,0.037,0.03,0.06c0.033,0.062,0.081,0.147,0.07,0.272
							C8.459,4.183,8.482,4.25,8.511,4.322C8.537,4.393,8.563,4.466,8.561,4.562L8.561,4.562z"/>
					</g>
					<path clip-path="url(#SVGID_4_)" fill="#7A361D" d="M8.52,4.529C8.511,4.347,8.408,4.267,8.427,4.101
						C8.383,4.232,8.489,4.334,8.484,4.528L8.52,4.529z"/>
					<path clip-path="url(#SVGID_4_)" fill="#F1BD51" d="M8.542,5.045l0.572,1.245c0,0,0.009,0.023,0.024,0.017
						c0.017-0.006,0.008-0.03,0.008-0.03L8.668,4.992L8.542,5.045z"/>
					<g clip-path="url(#SVGID_4_)">
						<path fill="#7A361D" d="M9.141,6.312C9.116,6.307,9.108,6.292,9.108,6.292L8.537,5.047l0.009-0.003l0.572,1.245
							c0,0,0.01,0.021,0.021,0.016c0.011-0.005,0.002-0.025,0.002-0.025L8.665,4.995l0.484,1.281
							C9.153,6.286,9.157,6.305,9.141,6.312L9.141,6.312z"/>
					</g>
					<polygon clip-path="url(#SVGID_4_)" fill="#7A361D" points="8.576,5.032 8.967,5.887 8.637,5.006 					"/>
					<path clip-path="url(#SVGID_4_)" fill="#F1BD51" d="M8.656,5.477C8.647,5.666,8.765,5.771,8.75,5.94
						C8.735,6.108,8.828,6.203,8.848,6.271c0.023,0.065-0.023,0.104-0.003,0.114c0.02,0.009,0.062-0.043,0.049-0.137
						C8.878,6.155,8.809,6.127,8.824,5.92c0.017-0.206-0.083-0.254-0.06-0.442L8.656,5.477z"/>
					<g clip-path="url(#SVGID_4_)">
						<path fill="#7A361D" d="M8.843,6.389C8.83,6.383,8.836,6.37,8.841,6.356c0.007-0.02,0.018-0.048,0.004-0.085
							C8.839,6.253,8.828,6.234,8.815,6.21c-0.033-0.062-0.08-0.147-0.071-0.271c0.008-0.083-0.017-0.15-0.042-0.222
							C8.676,5.646,8.646,5.572,8.649,5.477l0.01,0c-0.003,0.094,0.023,0.167,0.05,0.237C8.737,5.786,8.761,5.854,8.754,5.94
							C8.743,6.061,8.789,6.146,8.822,6.208C8.836,6.23,8.848,6.25,8.853,6.269c0.013,0.04,0.004,0.069-0.005,0.09
							c-0.005,0.014-0.005,0.019,0,0.022C8.876,6.365,8.899,6.32,8.889,6.249C8.884,6.218,8.873,6.194,8.86,6.168
							c-0.022-0.052-0.05-0.11-0.039-0.248c0.007-0.102-0.013-0.164-0.034-0.226C8.767,5.632,8.748,5.573,8.76,5.477
							C8.756,5.572,8.776,5.63,8.796,5.692c0.02,0.062,0.042,0.126,0.032,0.229C8.817,6.056,8.845,6.114,8.867,6.165
							c0.013,0.026,0.024,0.05,0.03,0.083c0.009,0.069-0.011,0.119-0.033,0.137L8.843,6.389L8.843,6.389z"/>
					</g>
					<path clip-path="url(#SVGID_4_)" fill="#7A361D" d="M8.691,5.509c0.011,0.182,0.112,0.262,0.093,0.428
						c0.044-0.132-0.063-0.233-0.057-0.426L8.691,5.509z"/>
					<path clip-path="url(#SVGID_4_)" fill="#F1BD51" d="M8.605,4.461c0.309,0,0.557,0.249,0.557,0.557
						c0,0.309-0.248,0.558-0.557,0.558c-0.31,0-0.559-0.249-0.559-0.558C8.047,4.71,8.296,4.461,8.605,4.461L8.605,4.461z"/>
					<g clip-path="url(#SVGID_4_)">
						<path fill="#7A361D" d="M8.605,5.581c-0.311,0-0.562-0.252-0.562-0.563c0-0.309,0.251-0.561,0.562-0.561
							c0.31,0,0.563,0.252,0.563,0.561C9.169,5.329,8.915,5.581,8.605,5.581L8.605,5.581z M8.605,4.466
							c-0.305,0-0.555,0.248-0.555,0.552c0,0.306,0.25,0.555,0.555,0.555c0.307,0,0.553-0.249,0.553-0.555
							C9.158,4.714,8.912,4.466,8.605,4.466L8.605,4.466z"/>
					</g>
					<path clip-path="url(#SVGID_4_)" fill="#7A361D" d="M8.958,4.899C8.858,4.813,8.735,4.8,8.665,4.866
						C8.615,4.931,8.62,5.011,8.68,5.093c-0.006,0-0.015,0.004-0.019,0.007C8.618,5.018,8.61,4.933,8.639,4.856
						C8.735,4.779,8.864,4.771,8.958,4.899L8.958,4.899z"/>
					<path clip-path="url(#SVGID_4_)" fill="#7A361D" d="M8.804,4.873c-0.058,0-0.068,0.014-0.095,0.035
						C8.683,4.929,8.67,4.924,8.665,4.929c-0.004,0.003,0,0.017,0.009,0.013C8.683,4.937,8.7,4.929,8.726,4.907
						C8.75,4.886,8.778,4.886,8.804,4.886c0.076,0,0.119,0.064,0.129,0.06C8.94,4.942,8.889,4.873,8.804,4.873L8.804,4.873z"/>
					<path clip-path="url(#SVGID_4_)" fill="#7A361D" d="M8.9,4.946C8.848,4.886,8.743,4.882,8.7,4.95h0.017
						c0.043-0.068,0.147-0.04,0.154-0.008V4.95L8.9,4.946z"/>
					<path clip-path="url(#SVGID_4_)" fill="#7A361D" d="M8.795,4.903c0.021,0,0.039,0.018,0.039,0.039S8.815,4.98,8.795,4.98
						S8.756,4.963,8.756,4.942S8.774,4.903,8.795,4.903L8.795,4.903z"/>
					<path clip-path="url(#SVGID_4_)" fill="#7A361D" d="M8.7,4.95c0.043,0.038,0.138,0.043,0.2-0.004L8.871,4.942
						C8.828,4.988,8.76,4.984,8.717,4.95V4.942L8.7,4.95z"/>
					<path clip-path="url(#SVGID_4_)" fill="#7A361D" d="M8.906,4.967C8.834,5.024,8.76,5.018,8.717,4.994
						C8.674,4.967,8.674,4.959,8.683,4.959S8.7,4.967,8.735,4.984C8.77,5.001,8.821,5.001,8.906,4.967L8.906,4.967z"/>
					<path clip-path="url(#SVGID_4_)" fill="#7A361D" d="M8.696,5.097c0.013,0.003,0.021,0.019,0.015,0.032
						C8.706,5.143,8.691,5.15,8.68,5.145C8.668,5.142,8.663,5.133,8.661,5.122C8.657,5.13,8.639,5.156,8.605,5.156H8.598
						l0.008,0.013c0.01,0,0.033,0,0.052-0.013C8.67,5.174,8.691,5.178,8.711,5.167C8.728,5.154,8.734,5.13,8.72,5.112
						C8.715,5.103,8.706,5.098,8.696,5.097L8.696,5.097z"/>
					<path clip-path="url(#SVGID_4_)" fill="#7A361D" d="M8.746,5.276C8.709,5.25,8.691,5.212,8.647,5.212
						c-0.009,0-0.025,0.004-0.042,0.014H8.598l0.008,0.012c0.017,0,0.042-0.021,0.074-0.004C8.709,5.25,8.726,5.268,8.746,5.276
						L8.746,5.276z"/>
					<path clip-path="url(#SVGID_4_)" fill="#7A361D" d="M8.735,5.276C8.647,5.25,8.631,5.268,8.605,5.268H8.598l0.008,0.018
						C8.639,5.285,8.657,5.259,8.735,5.276L8.735,5.276z"/>
					<path clip-path="url(#SVGID_4_)" fill="#7A361D" d="M8.746,5.276C8.654,5.268,8.683,5.323,8.605,5.323H8.598l0.008,0.013
						C8.7,5.336,8.657,5.285,8.746,5.276L8.746,5.276z"/>
					<path clip-path="url(#SVGID_4_)" fill="#7A361D" d="M8.683,5.413c0-0.042-0.035-0.077-0.077-0.077S8.527,5.371,8.527,5.413
						c0.01-0.042,0.054-0.068,0.097-0.058C8.654,5.362,8.676,5.384,8.683,5.413L8.683,5.413z"/>
					<path clip-path="url(#SVGID_4_)" fill="#7A361D" d="M8.253,4.899c0.1-0.085,0.224-0.099,0.293-0.033
						c0.05,0.065,0.044,0.145-0.014,0.227c0.005,0,0.014,0.004,0.018,0.007c0.042-0.082,0.052-0.167,0.021-0.243
						C8.477,4.779,8.349,4.771,8.253,4.899L8.253,4.899z"/>
					<path clip-path="url(#SVGID_4_)" fill="#7A361D" d="M8.408,4.873c0.056,0,0.068,0.014,0.095,0.035
						C8.527,4.929,8.54,4.924,8.546,4.929c0.004,0.003,0,0.017-0.009,0.013c-0.01-0.005-0.025-0.013-0.053-0.035
						C8.459,4.886,8.434,4.886,8.408,4.886c-0.077,0-0.119,0.064-0.129,0.06C8.271,4.942,8.322,4.873,8.408,4.873L8.408,4.873z"/>
					<path clip-path="url(#SVGID_4_)" fill="#7A361D" d="M8.31,4.946c0.056-0.06,0.158-0.064,0.202,0.004H8.493
						C8.45,4.882,8.349,4.911,8.342,4.942V4.95L8.31,4.946z"/>
					<path clip-path="url(#SVGID_4_)" fill="#7A361D" d="M8.418,4.903c-0.022,0-0.039,0.018-0.039,0.039S8.396,4.98,8.418,4.98
						c0.02,0,0.036-0.018,0.036-0.039S8.438,4.903,8.418,4.903L8.418,4.903z"/>
					<path clip-path="url(#SVGID_4_)" fill="#7A361D" d="M8.512,4.95C8.468,4.988,8.374,4.994,8.31,4.946l0.032-0.004
						C8.383,4.988,8.45,4.984,8.493,4.95V4.942L8.512,4.95z"/>
					<path clip-path="url(#SVGID_4_)" fill="#7A361D" d="M8.305,4.967C8.379,5.024,8.45,5.018,8.493,4.994
						c0.044-0.026,0.044-0.034,0.034-0.034c-0.008,0-0.016,0.008-0.051,0.025C8.441,5.001,8.392,5.001,8.305,4.967L8.305,4.967z"/>
					<path clip-path="url(#SVGID_4_)" fill="#7A361D" d="M8.516,5.097c-0.013,0.003-0.02,0.019-0.014,0.032
						C8.505,5.143,8.52,5.15,8.532,5.145C8.542,5.142,8.55,5.133,8.55,5.122C8.554,5.13,8.571,5.156,8.605,5.156h0.01l-0.01,0.013
						c-0.008,0-0.034,0-0.052-0.013C8.542,5.174,8.518,5.178,8.502,5.167C8.482,5.154,8.479,5.13,8.489,5.112
						C8.498,5.103,8.507,5.098,8.516,5.097L8.516,5.097z"/>
					<path clip-path="url(#SVGID_4_)" fill="#7A361D" d="M8.464,5.276C8.503,5.25,8.52,5.212,8.563,5.212
						c0.009,0,0.026,0.004,0.043,0.014h0.01l-0.01,0.012c-0.017,0-0.043-0.021-0.073-0.004C8.503,5.25,8.484,5.268,8.464,5.276
						L8.464,5.276z"/>
					<path clip-path="url(#SVGID_4_)" fill="#7A361D" d="M8.477,5.276C8.563,5.25,8.58,5.268,8.605,5.268h0.01l-0.01,0.018
						C8.571,5.285,8.554,5.259,8.477,5.276L8.477,5.276z"/>
					<path clip-path="url(#SVGID_4_)" fill="#7A361D" d="M8.464,5.276c0.095-0.008,0.063,0.047,0.142,0.047h0.01l-0.01,0.013
						C8.512,5.336,8.554,5.285,8.464,5.276L8.464,5.276z"/>
					<path clip-path="url(#SVGID_4_)" fill="#7A361D" d="M8.527,5.413c0-0.042,0.036-0.077,0.078-0.077s0.077,0.035,0.077,0.077
						C8.674,5.371,8.631,5.345,8.587,5.355C8.559,5.362,8.535,5.384,8.527,5.413L8.527,5.413z"/>
				</g>
			</g>
		</g>
	</g>
</g>
<g id="Layer_1">
</g>
</svg>
